<svg width="160" height="36" viewBox="0 0 160 36" fill="none" xmlns="http://www.w3.org/2000/svg">
<path d="M159.178 11.6873L158.711 17.1569H156.452C152.842 17.1569 150.972 20.0074 150.972 22.7551V35.1068H144.585V11.6873H150.635L150.765 14.6147C152.037 12.6117 154.27 11.6873 156.997 11.6873H159.178ZM114.852 35.1068H108.464V22.7294C108.464 20.1358 108.231 16.8745 104.543 16.8745C100.986 16.8745 99.5837 19.4167 99.5837 22.3699V35.1325H93.1958V11.6873H99.1163L99.2461 14.6917C100.518 12.6888 102.881 11.1223 106.387 11.1223C112.827 11.1223 114.878 15.6676 114.878 20.4182V35.1068H114.852ZM90.3913 29.6371L89.9499 34.9784C88.4178 35.3893 87.0416 35.5434 85.4057 35.5434C79.3813 35.5434 77.6415 32.8214 77.6415 27.326V5.11334H84.0294V11.6873H90.3913L89.9499 17.1569H84.0294V26.8124C84.0294 29.0208 84.6526 30.2021 86.9377 30.2021C87.9245 30.2021 89.041 30.0737 90.3913 29.6371ZM75.5382 11.6873L75.0448 17.1569H73.305C69.6956 17.1569 67.9039 20.0074 67.9039 22.7551V35.1068H61.516V11.6873H67.5663L67.6961 14.6147C68.9685 12.6117 71.2017 11.6873 73.9282 11.6873H75.5382ZM32.6406 32.5132C28.3041 34.7987 23.9676 36.134 18.2548 35.9799C7.63432 35.6718 0 29.1492 0 18.1328C0 7.16769 7.73818 0.182907 18.2808 0.00315094C23.63 -0.0738869 28.408 1.26144 32.1472 4.52272L27.6549 9.0166C25.3438 7.06497 21.9422 5.93508 17.8653 6.11483C11.2178 6.42299 7.24481 11.1993 7.14094 17.7476C7.06304 24.8608 11.4515 29.7398 18.3327 29.9196C21.5786 29.9966 23.8897 29.5601 25.8892 28.687V21.4197H18.7222L19.2156 15.4621H32.6406V32.5132ZM141.728 25.6055H124.2C124.694 28.6099 127.083 30.4075 130.043 30.4845C132.925 30.5616 134.535 29.6885 136.639 27.5828L140.819 30.7413C137.859 34.3621 134.302 35.6718 130.251 35.6718C123.11 35.6718 117.787 30.7413 117.787 23.397C117.787 16.0527 123.11 11.1223 129.991 11.1223C137.599 11.1223 141.754 15.6676 141.754 23.7565V25.6055H141.728ZM135.314 20.7264C135.107 17.7733 132.873 15.8987 129.783 16.0271C126.667 16.1555 124.616 18.1328 124.174 20.7264H135.314ZM57.4911 19.7506V35.0811H51.8562L51.7264 32.77C49.9866 34.9014 47.1821 35.6461 44.2998 35.6461C39.9373 35.6461 35.8345 33.5147 35.7566 28.5843C35.6268 20.8034 44.6114 20.2642 50.2463 20.2642H51.3628V19.956C51.3628 17.3881 49.649 16.0014 46.4031 16.0014C44.0661 16.0014 41.781 16.9258 40.0931 18.4923L36.4058 14.7945C39.7556 12.0981 43.2352 11.0966 46.9484 11.0966C54.2452 11.0966 57.4911 14.4606 57.4911 19.7506ZM51.3369 24.8864H50.454C47.4159 24.8864 42.1186 25.0405 42.1186 28.1734C42.1445 32.5902 51.3369 31.1779 51.3369 25.8623V24.8864ZM154.192 32.3848C154.192 30.8954 155.335 29.7655 156.789 29.7655C158.217 29.7655 159.36 30.8954 159.36 32.3848C159.36 33.8999 158.217 35.0298 156.789 35.0298C155.335 35.0041 154.192 33.8999 154.192 32.3848ZM156.789 35.5434C158.529 35.5434 160.009 34.208 160.009 32.3848C160.009 30.5873 158.529 29.2519 156.789 29.2519C155.049 29.2519 153.543 30.5873 153.543 32.3848C153.543 34.208 155.023 35.5434 156.789 35.5434ZM156.114 32.6159H156.763L157.724 34.1824H158.347L157.308 32.5902C157.854 32.5132 158.269 32.2307 158.269 31.5887C158.269 30.8697 157.828 30.5616 156.971 30.5616H155.569V34.208H156.114V32.6159ZM156.114 32.1537V31.0238H156.867C157.257 31.0238 157.672 31.1008 157.672 31.5631C157.672 32.128 157.257 32.1537 156.789 32.1537H156.114Z" fill="#03363D"/>
</svg>
