<svg width="181" height="26" viewBox="0 0 181 26" fill="none" xmlns="http://www.w3.org/2000/svg">
<g clip-path="url(#clip0_2_107)">
<path d="M6.78876 13.9L17.0717 3.59995C18.4694 2.19995 20.8654 2.19995 22.2631 3.59995L22.962 4.39995L24.5593 2.79995L23.7606 1.99995C21.3646 -0.400049 17.6707 -0.400049 15.3745 1.99995L5.19141 12.3L6.78876 13.9Z" fill="#03363D"/>
<path d="M20.3662 6.9L18.7689 5.3L8.48594 15.6C7.08825 17 4.69222 17 3.29454 15.6C1.89686 14.2 1.89686 11.8 3.29454 10.4L12.08 1.6L10.5825 0L1.79702 8.8C-0.599007 11 -0.599007 14.8 1.79702 17.2C4.19305 19.6 7.78709 19.6 10.1831 17.4C10.1831 17.4 10.1831 17.4 10.3828 17.2L20.3662 6.9ZM30.5494 8.8C28.1533 6.4 24.4595 6.4 22.1633 8.8L11.9801 19.1L13.5775 20.7L23.7606 10.5C25.1583 9.1 27.5543 9.1 28.952 10.5C29.551 11.1 30.0502 12.1 30.0502 13C30.0502 13.9 29.7507 14.9 28.952 15.7L20.1666 24.5L21.7639 26.1L30.5494 17.3C32.9454 14.8 32.9454 11.2 30.5494 8.8Z" fill="#03363D"/>
<path d="M25.5576 12.1L15.2747 22.4C13.877 23.8 11.481 23.8 10.0833 22.4L9.48428 21.6L7.88693 23.2L8.68561 24C11.0816 26.4 14.7755 26.4 17.0717 24L27.2548 13.8L25.5576 12.1Z" fill="#03363D"/>
<path d="M41.5312 15.8C41.7308 16.4 42.0303 16.9 42.4297 17.4C43.0287 17.7 43.7275 18 44.3265 17.9C44.9256 17.9 45.6244 17.7 46.2234 17.4C46.7226 17.1 46.8224 16.5 46.8224 16C46.8224 15.7 46.8224 15.5 46.6227 15.2C46.4231 15 46.3232 14.9 46.1236 14.7C45.9239 14.5 45.6244 14.4 45.3249 14.4L44.5262 14L43.6277 13.7C43.1285 13.5 42.5295 13.4 42.0303 13.1C41.5312 12.9 41.2317 12.6 40.9322 12.3C40.6327 12 40.3332 11.7 40.1335 11.2C39.9338 10.7 39.834 10.3 39.834 9.80005C39.834 9.30005 40.0337 8.70005 40.1335 8.40005C40.3332 7.90005 40.6327 7.60005 41.032 7.30005C41.5312 7.00005 41.9305 6.70005 42.4297 6.50005C43.0287 6.30005 43.7275 6.30005 44.3265 6.30005C45.6244 6.30005 46.7226 6.60005 47.5212 7.20005C48.3199 7.80005 48.8191 8.80005 48.9189 9.70005L46.7226 9.90005C46.5229 9.40005 46.4231 9.00005 45.9239 8.60005C45.4247 8.30005 44.8257 8.10005 44.2267 8.10005C43.6277 8.10005 43.1285 8.30005 42.6294 8.60005C42.3299 8.90005 42.0303 9.40005 42.0303 9.70005C42.0303 10 42.0303 10.2 42.23 10.3C42.5295 10.6 42.7292 10.8 42.829 10.9C42.9289 11 43.3282 11.2 43.6277 11.2C43.9272 11.4 44.2267 11.4 44.5262 11.5L45.4247 11.8C46.0237 12 46.5229 12.1 47.0221 12.4C47.5212 12.6 47.8208 12.9 48.1203 13.2C48.4198 13.5 48.7193 13.8 48.9189 14.1C49.1186 14.6 49.2184 15 49.2184 15.5C49.2184 16.1 49.0188 16.6 48.9189 17.1C48.7193 17.6 48.3199 18 48.0204 18.4C47.5212 18.7 47.1219 19 46.4231 19.2C45.8241 19.4 45.1252 19.5 44.5262 19.5C43.428 19.5 42.1302 19.2 41.2317 18.6C40.3332 18 39.6343 16.9 39.5345 15.8H41.5312ZM58.4032 6.30005C59.3017 6.30005 60.3001 6.50005 61.0987 6.80005C61.8974 7.10005 62.4964 7.60005 63.0954 8.20005C63.6944 8.80005 64.1936 9.60005 64.3933 10.4C64.6928 11.3 64.8925 12.1 64.8925 13.1C64.8925 14 64.6928 15 64.3933 15.9C64.0938 16.7 63.5946 17.5 62.9956 18.1L64.6928 20.1V20.7H62.4964L61.3982 19C60.8991 19.2 60.4997 19.3 60.0006 19.5C59.5014 19.7 58.9024 19.7 58.4032 19.7C57.5047 19.7 56.5064 19.5 55.7077 19.2C54.909 18.9 54.31 18.4 53.711 17.8C53.112 17.2 52.8125 16.5 52.4131 15.8C52.1136 14.9 51.914 13.9 51.914 13.1C51.914 12.2 52.1136 11.2 52.4131 10.4C52.7126 9.60005 53.2118 8.80005 53.711 8.40005C54.31 7.80005 55.0088 7.30005 55.7077 7.00005C56.706 6.50005 57.5047 6.30005 58.4032 6.30005ZM58.4032 8.20005C57.8042 8.20005 57.1054 8.40005 56.706 8.50005C56.3067 8.60005 55.8075 9.10005 55.4082 9.40005C55.1087 9.90005 54.8092 10.3 54.6095 11C54.4098 11.7 54.31 12.3 54.31 12.9C54.31 13.5 54.5097 14.2 54.6095 14.8C54.8092 15.4 55.1087 15.9 55.4082 16.4C55.7077 16.9 56.2069 17.2 56.706 17.3C57.2052 17.6 57.8042 17.6 58.4032 17.6C59.0022 17.6 59.7011 17.4 60.1004 17.3C60.5996 17.1 60.9989 16.7 61.3982 16.4C61.6978 15.9 61.9973 15.5 62.1969 14.8C62.3966 14.1 62.4964 13.5 62.4964 12.9C62.4964 12.3 62.2968 11.6 62.1969 11C61.9973 10.5 61.6978 9.90005 61.3982 9.40005C61.0987 8.90005 60.5996 8.60005 60.1004 8.50005C59.7011 8.40005 59.0022 8.20005 58.4032 8.20005ZM73.4782 18C74.2769 18 75.0756 17.7 75.6746 17.2C76.1738 16.6 76.4733 15.8 76.4733 14.5V6.60005H78.6696V14.5C78.6696 15.3 78.4699 16.1 78.3701 16.9C78.1704 17.5 77.7711 18 77.2719 18.5C76.7728 19 76.3734 19.3 75.6746 19.4C74.2769 19.7 72.6796 19.7 71.2819 19.4C70.6829 19.2 70.1837 18.9 69.6845 18.5C69.1853 18.1 68.8858 17.6 68.5863 16.9C68.2868 16.1 68.2868 15.3 68.2868 14.5V6.60005H70.4832V14.5C70.4832 15.6 70.7827 16.5 71.2819 17.2C71.781 17.6 72.5797 18 73.4782 18ZM80.866 18.9L85.4584 6.60005H88.9526L93.545 18.9V19.5H91.3486L89.8511 15.8H84.3602L83.0623 19.4H81.0656L80.866 18.9ZM84.9592 13.9H89.2521L88.6531 11.9C88.3536 11.1 88.1539 10.5 88.0541 10C87.8544 9.50005 87.6547 9.00005 87.5549 8.70005H86.856L86.5565 9.20005C86.5565 9.40005 86.3569 9.70005 86.257 9.80005C86.1572 9.90005 86.0574 10.3 85.9575 10.6C85.7579 10.9 85.658 11.2 85.4584 11.7L84.9592 13.9ZM106.024 19.5H103.828L99.9344 14.5H98.5367V19.5H96.3403V6.60005H100.633C101.232 6.60005 101.931 6.60005 102.53 6.80005C103.129 7.00005 103.628 7.10005 104.127 7.40005C105.026 8.00005 105.725 9.10005 105.725 10.4C105.725 10.9 105.525 11.5 105.425 12C105.226 12.5 105.126 12.8 104.826 13.1C104.527 13.4 104.227 13.7 103.928 13.9C103.329 13.9 103.029 14.1 102.53 14.2L106.324 18.9V19.5H106.024ZM98.5367 12.4H100.434C101.232 12.4 101.831 12.2 102.43 11.9C102.929 11.6 103.229 11 103.229 10.3C103.229 9.60005 103.029 9.00005 102.43 8.70005C101.831 8.40005 101.132 8.20005 100.434 8.20005H98.5367V12.4ZM108.919 6.60005H117.306V8.60005H111.216V12H116.906V13.9H111.216V17.5H117.505V19.5H109.019V6.60005H108.919ZM122.397 15.8C122.597 16.4 122.896 16.9 123.296 17.4C123.895 17.7 124.593 18 125.193 17.9C125.792 17.9 126.49 17.7 127.089 17.4C127.589 17.1 127.688 16.5 127.688 16C127.688 15.7 127.688 15.5 127.489 15.2C127.289 15 127.189 14.9 126.99 14.7C126.79 14.5 126.49 14.4 126.191 14.4L125.292 14.1L124.194 13.8C123.695 13.6 123.096 13.5 122.597 13.2C122.098 13 121.798 12.7 121.499 12.4C121.199 12.1 120.9 11.8 120.7 11.3C120.4 10.4 120.4 9.40005 120.7 8.50005C120.9 8.00005 121.199 7.70005 121.598 7.40005C121.998 7.10005 122.497 6.80005 122.996 6.60005C123.595 6.40005 124.294 6.40005 124.993 6.40005C126.291 6.40005 127.389 6.70005 128.188 7.30005C128.986 7.90005 129.485 8.90005 129.585 9.80005L127.189 10C127.189 9.50005 126.89 9.10005 126.59 8.70005C126.091 8.40005 125.492 8.20005 124.893 8.20005C124.294 8.20005 123.795 8.40005 123.296 8.70005C122.996 9.00005 122.697 9.50005 122.697 9.80005C122.697 10.1 122.697 10.3 122.896 10.4C123.096 10.6 123.196 10.7 123.395 10.9C123.595 11.1 123.895 11.2 124.194 11.2C124.494 11.4 124.793 11.4 125.093 11.5L125.991 11.8C126.59 12 127.089 12.1 127.589 12.4C128.088 12.6 128.387 12.9 128.687 13.2C128.986 13.5 129.286 13.8 129.485 14.1C129.685 14.6 129.785 15 129.785 15.5C129.785 16.1 129.585 16.6 129.485 17.1C129.286 17.6 128.886 18 128.587 18.4C128.088 18.7 127.688 19 126.99 19.2C126.391 19.4 125.692 19.5 124.993 19.5C123.895 19.5 122.597 19.2 121.698 18.6C120.8 18 120.101 16.9 120.101 15.8H122.397ZM133.279 6.60005H137.971C138.77 6.60005 139.369 6.80005 140.168 6.90005C140.667 7.10005 141.266 7.40005 141.565 7.70005C141.865 8.00005 142.164 8.50005 142.364 9.00005C142.564 9.50005 142.664 10.1 142.664 10.6C142.664 11.2 142.464 11.9 142.364 12.3C142.164 12.8 141.865 13.2 141.466 13.6C141.066 14 140.567 14.2 139.868 14.4C139.269 14.6 138.471 14.7 137.871 14.7H135.675V19.7H133.479L133.279 6.60005ZM135.475 12.6H137.672C137.971 12.6 138.47 12.6 138.77 12.4C139.07 12.4 139.369 12.2 139.569 12.1C139.868 11.9 140.068 11.8 140.168 11.5C140.367 11.2 140.367 10.9 140.367 10.6C140.367 10.3 140.367 10 140.168 9.70005C139.968 9.40005 139.868 9.20005 139.569 9.10005C139.269 8.90005 139.07 8.80005 138.77 8.80005C138.47 8.80005 137.971 8.60005 137.672 8.60005H135.475V12.6ZM143.163 18.9L147.755 6.60005H151.249L155.842 18.9V19.5H153.645L152.347 15.7H146.657L145.359 19.3H143.163V18.9ZM147.256 13.9H151.549L150.95 11.9C150.65 11.1 150.451 10.5 150.351 10L149.852 8.70005H149.253L149.053 9.30005C149.053 9.50005 148.853 9.80005 148.753 9.90005C148.554 10.2 148.554 10.4 148.454 10.7C148.254 11 148.154 11.3 147.955 11.8L147.256 13.9ZM169.419 16.1C169.22 16.6 168.92 17 168.621 17.5C168.321 18 167.822 18.3 167.323 18.6C166.823 18.9 166.224 19.2 165.725 19.4C165.126 19.6 164.328 19.7 163.729 19.7C162.83 19.7 162.031 19.5 161.033 19.2C160.234 18.9 159.635 18.4 159.036 17.8C158.437 17.2 158.138 16.5 157.739 15.8C157.439 15 157.239 14.1 157.239 13.1C157.239 12.2 157.439 11.2 157.739 10.4C158.038 9.60005 158.537 8.80005 159.036 8.20005C159.635 7.60005 160.334 7.10005 161.033 6.80005C161.832 6.50005 162.73 6.30005 163.729 6.30005C165.026 6.30005 166.224 6.60005 167.323 7.20005C168.221 7.80005 168.92 8.80005 169.319 9.90005L166.923 10.4C166.624 9.80005 166.125 9.30005 165.625 8.80005C165.026 8.50005 164.328 8.20005 163.629 8.20005C163.03 8.20005 162.531 8.40005 161.932 8.50005C161.432 8.80005 161.033 9.10005 160.634 9.40005C160.334 9.90005 160.035 10.3 159.835 11C159.635 11.6 159.536 12.3 159.536 12.9C159.536 13.5 159.735 14.2 159.835 14.8C160.035 15.3 160.334 15.9 160.634 16.4C160.933 16.9 161.432 17.2 161.932 17.3C162.431 17.6 163.03 17.6 163.629 17.6C164.427 17.6 165.026 17.4 165.625 17C166.125 16.7 166.524 16.1 166.923 15.6L169.419 16.1ZM172.414 6.60005H180.8V8.60005H174.71V12H180.401V13.9H174.71V17.5H181V19.5H172.514V6.60005H172.414Z" fill="#03363D"/>
</g>
<defs>
<clipPath id="clip0_2_107">
<rect width="181" height="26" fill="white"/>
</clipPath>
</defs>
</svg>
